<?xml version="1.0" encoding="utf-8"?>
<!-- Generator: Adobe Illustrator 26.1.0, SVG Export Plug-In . SVG Version: 6.00 Build 0)  -->
<svg version="1.1" id="Layer_1" xmlns="http://www.w3.org/2000/svg" xmlns:xlink="http://www.w3.org/1999/xlink" x="0px" y="0px"
	 viewBox="0 0 3171.4 2215.8" style="enable-background:new 0 0 3171.4 2215.8;" xml:space="preserve">
<style type="text/css">
	.st0{fill:#39E991;}
</style>
<g transform="scale(8.571428571428571) translate(10, 10)">
	<g id="SvgjsG1086" transform="matrix(0.17339606785167383,0,0,0.17339606785167383,88.301958136721,-16.698041863278995)">
		<g>
			<polygon class="st0" points="500,116.8 410.2,168.5 589.8,168.5 			"/>
			<polygon class="st0" points="566.9,1314 433.1,1314 500,1352.5 			"/>
			<polygon class="st0" points="500,215.6 433.1,254.1 566.9,254.1 			"/>
			<polygon class="st0" points="358,254.1 441.3,206.2 345.1,206.2 261.8,254.1 			"/>
			<polygon class="st0" points="166.3,206.2 114.5,295.9 270.1,206.2 			"/>
			<polygon class="st0" points="177.2,358.6 293.1,291.8 215.7,291.8 			"/>
			<polygon class="st0" points="642,254.1 738.2,254.1 654.9,206.2 558.7,206.2 			"/>
			<polygon class="st0" points="215.7,1276.3 293.1,1276.3 177.2,1209.5 			"/>
			<polygon class="st0" points="925.5,461.2 992.2,577.1 992.2,499.8 			"/>
			<polygon class="st0" points="706.9,291.8 822.8,358.6 784.3,291.8 			"/>
			<polygon class="st0" points="1068.4,784.1 1029.9,717.1 1029.9,851 			"/>
			<polygon class="st0" points="1077.9,450.3 988.1,398.6 1077.9,554.1 			"/>
			<polygon class="st0" points="992.2,991 925.5,1106.9 992.2,1068.4 			"/>
			<polygon class="st0" points="1077.9,629.2 1029.9,545.9 1029.9,642.1 1077.9,725.4 			"/>
			<polygon class="st0" points="833.7,206.2 729.9,206.2 885.5,295.9 			"/>
			<polygon class="st0" points="822.8,1209.5 706.9,1276.3 784.3,1276.3 			"/>
			<polygon class="st0" points="887.9,396.1 971.1,444.2 923.2,360.9 839.8,313 			"/>
			<polygon class="st0" points="160.2,313 76.8,360.9 28.9,444.2 112.1,396.1 			"/>
			<polygon class="st0" points="-29.9,545.9 -77.9,629.2 -77.9,725.4 -29.9,642.1 			"/>
			<polygon class="st0" points="839.8,1255.2 923.2,1207.2 971.1,1123.9 887.9,1172 			"/>
			<polygon class="st0" points="642,1314 558.7,1361.9 654.9,1361.9 738.2,1314 			"/>
			<polygon class="st0" points="833.7,1361.9 885.5,1272.2 729.9,1361.9 			"/>
			<polygon class="st0" points="500,1451.4 589.8,1399.6 410.2,1399.6 			"/>
			<polygon class="st0" points="1029.9,926 1029.9,1022.3 1077.9,938.9 1077.9,842.7 			"/>
			<polygon class="st0" points="1115.6,694.3 1115.6,873.8 1167.3,784.1 			"/>
			<polygon class="st0" points="358,1314 261.8,1314 345.1,1361.9 441.3,1361.9 			"/>
			<polygon class="st0" points="1077.9,1117.8 1077.9,1014 988.1,1169.5 			"/>
			<polygon class="st0" points="-77.9,938.9 -29.9,1022.3 -29.9,926 -77.9,842.7 			"/>
			<polygon class="st0" points="-68.4,784.1 -29.9,851 -29.9,717.1 			"/>
			<polygon class="st0" points="-77.9,450.3 -77.9,554.1 11.9,398.6 			"/>
			<polygon class="st0" points="7.8,499.8 7.8,577.1 74.5,461.2 			"/>
			<polygon class="st0" points="74.5,1106.9 7.8,991 7.8,1068.4 			"/>
			<polygon class="st0" points="112.1,1172 28.9,1123.9 76.8,1207.2 160.2,1255.2 			"/>
			<polygon class="st0" points="166.3,1361.9 270.1,1361.9 114.5,1272.2 			"/>
			<polygon class="st0" points="-77.9,1117.8 11.9,1169.5 -77.9,1014 			"/>
			<polygon class="st0" points="-115.6,873.8 -115.6,694.3 -167.3,784.1 			"/>
		</g>
	</g>
</g>
</svg>
